<svg width="106" height="63" xmlns="http://www.w3.org/2000/svg">

 <g>
  <title>background</title>
  <rect fill="none" id="canvas_background" height="402" width="582" y="-1" x="-1"/>
 </g>
 <g>
  <title>Layer 1</title>
  <path id="svg_1" d="m104.872,42.749l-22.361,0c-4.543,11.84 -16.039,20.251 -29.511,20.251c-13.472,0 -24.968,-8.411 -29.511,-20.251l-22.362,0l-1.127,-11.225c0,0 15.035,0.748 24.808,-14.593c0.291,-0.456 0.586,-0.871 0.883,-1.264c5.475,-9.367 15.651,-15.667 27.309,-15.667c11.569,0 21.681,6.203 27.185,15.453c0.339,0.438 0.676,0.901 1.006,1.42c9.773,15.376 24.809,14.626 24.809,14.626l-1.128,11.25z" fill="#fcede6" fill-rule="evenodd"/>
 </g>
</svg>